G04 Layer_Color=8388736*
%FSLAX42Y42*%
%MOMM*%
G71*
G01*
G75*
%ADD17C,0.25*%
G04:AMPARAMS|DCode=32|XSize=0.9mm|YSize=2.2mm|CornerRadius=0.28mm|HoleSize=0mm|Usage=FLASHONLY|Rotation=270.000|XOffset=0mm|YOffset=0mm|HoleType=Round|Shape=RoundedRectangle|*
%AMROUNDEDRECTD32*
21,1,0.90,1.65,0,0,270.0*
21,1,0.35,2.20,0,0,270.0*
1,1,0.55,-0.82,-0.17*
1,1,0.55,-0.82,0.17*
1,1,0.55,0.82,0.17*
1,1,0.55,0.82,-0.17*
%
%ADD32ROUNDEDRECTD32*%
G04:AMPARAMS|DCode=33|XSize=0.9mm|YSize=2.2mm|CornerRadius=0.28mm|HoleSize=0mm|Usage=FLASHONLY|Rotation=0.000|XOffset=0mm|YOffset=0mm|HoleType=Round|Shape=RoundedRectangle|*
%AMROUNDEDRECTD33*
21,1,0.90,1.65,0,0,0.0*
21,1,0.35,2.20,0,0,0.0*
1,1,0.55,0.17,-0.82*
1,1,0.55,-0.17,-0.82*
1,1,0.55,-0.17,0.82*
1,1,0.55,0.17,0.82*
%
%ADD33ROUNDEDRECTD33*%
G04:AMPARAMS|DCode=34|XSize=1.55mm|YSize=1.9mm|CornerRadius=0.44mm|HoleSize=0mm|Usage=FLASHONLY|Rotation=0.000|XOffset=0mm|YOffset=0mm|HoleType=Round|Shape=RoundedRectangle|*
%AMROUNDEDRECTD34*
21,1,1.55,1.02,0,0,0.0*
21,1,0.68,1.90,0,0,0.0*
1,1,0.88,0.34,-0.51*
1,1,0.88,-0.34,-0.51*
1,1,0.88,-0.34,0.51*
1,1,0.88,0.34,0.51*
%
%ADD34ROUNDEDRECTD34*%
G04:AMPARAMS|DCode=35|XSize=0.85mm|YSize=1.75mm|CornerRadius=0.26mm|HoleSize=0mm|Usage=FLASHONLY|Rotation=270.000|XOffset=0mm|YOffset=0mm|HoleType=Round|Shape=RoundedRectangle|*
%AMROUNDEDRECTD35*
21,1,0.85,1.23,0,0,270.0*
21,1,0.33,1.75,0,0,270.0*
1,1,0.53,-0.61,-0.16*
1,1,0.53,-0.61,0.16*
1,1,0.53,0.61,0.16*
1,1,0.53,0.61,-0.16*
%
%ADD35ROUNDEDRECTD35*%
G04:AMPARAMS|DCode=36|XSize=15.2mm|YSize=8.7mm|CornerRadius=2.23mm|HoleSize=0mm|Usage=FLASHONLY|Rotation=0.000|XOffset=0mm|YOffset=0mm|HoleType=Round|Shape=RoundedRectangle|*
%AMROUNDEDRECTD36*
21,1,15.20,4.25,0,0,0.0*
21,1,10.75,8.70,0,0,0.0*
1,1,4.45,5.38,-2.13*
1,1,4.45,-5.38,-2.13*
1,1,4.45,-5.38,2.13*
1,1,4.45,5.38,2.13*
%
%ADD36ROUNDEDRECTD36*%
%ADD37C,1.73*%
%ADD38C,1.80*%
%ADD39C,4.50*%
%ADD40C,2.20*%
%ADD41C,2.70*%
%ADD42O,2.70X2.00*%
G04:AMPARAMS|DCode=43|XSize=2.7mm|YSize=2mm|CornerRadius=0mm|HoleSize=0mm|Usage=FLASHONLY|Rotation=5.800|XOffset=0mm|YOffset=0mm|HoleType=Round|Shape=Round|*
%AMOVALD43*
21,1,0.70,2.00,0.00,0.00,5.8*
1,1,2.00,-0.35,-0.04*
1,1,2.00,0.35,0.04*
%
%ADD43OVALD43*%

%ADD44C,1.70*%
%ADD45R,1.70X1.70*%
D17*
X9350Y1450D02*
X9450D01*
X9400Y1400D02*
Y1500D01*
D32*
X7900Y2385D02*
D03*
Y2165D02*
D03*
Y2275D02*
D03*
Y1945D02*
D03*
Y2055D02*
D03*
Y2715D02*
D03*
Y2935D02*
D03*
Y3045D02*
D03*
Y3155D02*
D03*
Y2825D02*
D03*
Y2495D02*
D03*
Y2605D02*
D03*
D33*
X9440Y1680D02*
D03*
X8670D02*
D03*
X9220D02*
D03*
X9110D02*
D03*
X9000D02*
D03*
X8890D02*
D03*
X8780D02*
D03*
X8560D02*
D03*
X8450D02*
D03*
X8340D02*
D03*
X8230D02*
D03*
X9330D02*
D03*
X9220Y3420D02*
D03*
X8450D02*
D03*
X9330D02*
D03*
X8340D02*
D03*
X8560D02*
D03*
X8670D02*
D03*
X8780D02*
D03*
X8890D02*
D03*
X9000D02*
D03*
X9110D02*
D03*
X8230D02*
D03*
X9440D02*
D03*
D34*
X8850Y2870D02*
D03*
Y2630D02*
D03*
X9050D02*
D03*
Y2870D02*
D03*
D35*
X8320Y2670D02*
D03*
X8585Y2765D02*
D03*
Y2575D02*
D03*
D36*
X8650Y1000D02*
D03*
D37*
X9496Y5296D02*
D03*
X9750Y250D02*
D03*
X9246Y7160D02*
D03*
X2010Y3790D02*
D03*
X5747Y9247D02*
D03*
X2012Y9109D02*
D03*
X5540Y250D02*
D03*
X1790D02*
D03*
X5340Y4160D02*
D03*
D38*
X6363Y1358D02*
D03*
X6617D02*
D03*
X4483D02*
D03*
X4737D02*
D03*
X2603D02*
D03*
X2857D02*
D03*
X723D02*
D03*
X977D02*
D03*
X6363Y3238D02*
D03*
X6617D02*
D03*
X4483D02*
D03*
X4737D02*
D03*
X2603D02*
D03*
X2857D02*
D03*
X723D02*
D03*
X977D02*
D03*
X8905Y4812D02*
D03*
X9158Y4838D02*
D03*
X6939Y5557D02*
D03*
X7192Y5583D02*
D03*
X5022Y5835D02*
D03*
X5274Y5860D02*
D03*
X3199Y5177D02*
D03*
X3451Y5203D02*
D03*
X1309Y5177D02*
D03*
X1562Y5203D02*
D03*
X8715Y6682D02*
D03*
X8968Y6708D02*
D03*
X6749Y7427D02*
D03*
X7002Y7453D02*
D03*
X4832Y7705D02*
D03*
X5084Y7731D02*
D03*
X3009Y7047D02*
D03*
X3261Y7073D02*
D03*
X1119Y7047D02*
D03*
X1372Y7073D02*
D03*
X8525Y8553D02*
D03*
X8778Y8578D02*
D03*
X6560Y9298D02*
D03*
X6812Y9323D02*
D03*
X4642Y9575D02*
D03*
X4894Y9601D02*
D03*
X2819Y8918D02*
D03*
X3071Y8943D02*
D03*
X929Y8918D02*
D03*
X1182Y8944D02*
D03*
D39*
X6490Y850D02*
D03*
X4610D02*
D03*
X2730D02*
D03*
X850D02*
D03*
X6490Y2730D02*
D03*
X4610D02*
D03*
X2730D02*
D03*
X850D02*
D03*
X9083Y4319D02*
D03*
X7117Y5064D02*
D03*
X5199Y5342D02*
D03*
X3376Y4685D02*
D03*
X1487Y4685D02*
D03*
X8893Y6190D02*
D03*
X6927Y6935D02*
D03*
X5009Y7212D02*
D03*
X3186Y6555D02*
D03*
X1297Y6555D02*
D03*
X8703Y8060D02*
D03*
X6737Y8805D02*
D03*
X4819Y9083D02*
D03*
X2996Y8425D02*
D03*
X1107Y8425D02*
D03*
D40*
X6998Y850D02*
D03*
X5982D02*
D03*
X5118D02*
D03*
X4102D02*
D03*
X3238D02*
D03*
X2222D02*
D03*
X1358D02*
D03*
X342D02*
D03*
X6998Y2730D02*
D03*
X5982D02*
D03*
X5118D02*
D03*
X4102D02*
D03*
X3238D02*
D03*
X2222D02*
D03*
X1358D02*
D03*
X342D02*
D03*
X9588Y4371D02*
D03*
X8577Y4268D02*
D03*
X7623Y5116D02*
D03*
X6612Y5013D02*
D03*
X5705Y5393D02*
D03*
X4694Y5291D02*
D03*
X3882Y4736D02*
D03*
X2871Y4633D02*
D03*
X1992Y4736D02*
D03*
X981Y4633D02*
D03*
X9398Y6241D02*
D03*
X8387Y6138D02*
D03*
X7433Y6986D02*
D03*
X6422Y6884D02*
D03*
X5515Y7264D02*
D03*
X4504Y7161D02*
D03*
X3692Y6606D02*
D03*
X2681Y6504D02*
D03*
X1802Y6606D02*
D03*
X791Y6504D02*
D03*
X9208Y8111D02*
D03*
X8197Y8009D02*
D03*
X7243Y8857D02*
D03*
X6232Y8754D02*
D03*
X5325Y9134D02*
D03*
X4314Y9032D02*
D03*
X3502Y8477D02*
D03*
X2491Y8374D02*
D03*
X1612Y8477D02*
D03*
X601Y8374D02*
D03*
X9820Y1000D02*
D03*
X7480D02*
D03*
D41*
X6871Y596D02*
D03*
X6109D02*
D03*
X4991D02*
D03*
X4229D02*
D03*
X3111D02*
D03*
X2349D02*
D03*
X1231D02*
D03*
X469D02*
D03*
X6871Y2476D02*
D03*
X6109D02*
D03*
X4991D02*
D03*
X4229D02*
D03*
X3111D02*
D03*
X2349D02*
D03*
X1231D02*
D03*
X469D02*
D03*
X9487Y4105D02*
D03*
X8729Y4028D02*
D03*
X7522Y4850D02*
D03*
X6764Y4773D02*
D03*
X5604Y5128D02*
D03*
X4846Y5051D02*
D03*
X3781Y4470D02*
D03*
X3023Y4393D02*
D03*
X1891Y4470D02*
D03*
X1133Y4393D02*
D03*
X9297Y5975D02*
D03*
X8539Y5898D02*
D03*
X7332Y6721D02*
D03*
X6574Y6644D02*
D03*
X5414Y6998D02*
D03*
X4656Y6921D02*
D03*
X3591Y6341D02*
D03*
X2833Y6264D02*
D03*
X1701Y6341D02*
D03*
X943Y6264D02*
D03*
X9107Y7846D02*
D03*
X8349Y7769D02*
D03*
X7142Y8591D02*
D03*
X6384Y8514D02*
D03*
X5224Y8869D02*
D03*
X4466Y8792D02*
D03*
X3401Y8211D02*
D03*
X2643Y8134D02*
D03*
X1511Y8211D02*
D03*
X753Y8134D02*
D03*
D42*
X6236Y362D02*
D03*
X6744D02*
D03*
X4356D02*
D03*
X4864D02*
D03*
X2476D02*
D03*
X2984D02*
D03*
X596D02*
D03*
X1104D02*
D03*
X6236Y2242D02*
D03*
X6744D02*
D03*
X4356D02*
D03*
X4864D02*
D03*
X2476D02*
D03*
X2984D02*
D03*
X596D02*
D03*
X1104D02*
D03*
D43*
X8879Y3808D02*
D03*
X9385Y3860D02*
D03*
X6914Y4554D02*
D03*
X7419Y4605D02*
D03*
X4996Y4831D02*
D03*
X5501Y4883D02*
D03*
X3173Y4174D02*
D03*
X3678Y4225D02*
D03*
X1283Y4174D02*
D03*
X1789Y4225D02*
D03*
X8689Y5679D02*
D03*
X9195Y5730D02*
D03*
X6724Y6424D02*
D03*
X7229Y6475D02*
D03*
X4806Y6702D02*
D03*
X5311Y6753D02*
D03*
X2983Y6044D02*
D03*
X3488Y6095D02*
D03*
X1093Y6044D02*
D03*
X1599Y6095D02*
D03*
X8499Y7549D02*
D03*
X9005Y7601D02*
D03*
X6534Y8294D02*
D03*
X7039Y8346D02*
D03*
X4616Y8572D02*
D03*
X5121Y8623D02*
D03*
X2793Y7914D02*
D03*
X3298Y7966D02*
D03*
X903Y7914D02*
D03*
X1409Y7966D02*
D03*
D44*
X9260Y2931D02*
D03*
Y2677D02*
D03*
Y2423D02*
D03*
D45*
Y2169D02*
D03*
M02*
