M48
;Layer_Color=9474304
;FILE_FORMAT=4:2
METRIC,LZ
;TYPE=PLATED
T1F00S00C0.30
T2F00S00C0.50
T3F00S00C0.90
T4F00S00C1.10
T5F00S00C1.40
T6F00S00C1.70
T7F00S00C3.99
;TYPE=NON_PLATED
T8F00S00C2.20
%
T01
X00756Y00164
X007625Y00158
X0079Y001875
X00845Y001815
X00856
X00878Y001862
X00911Y001815
X00922
X00933
X00944Y00189
X009Y00209
X00889Y00209
X00889Y00233
X009
X00859Y00243
X00845Y00249
X00831Y00241
X00825Y002275
Y00217
X008035Y002165
Y002275
Y002385
Y002495
Y002605
Y002715
Y002825
Y002935
Y003045
X0079Y003225
X00845Y003285
X00856
X00867Y003145
X00878Y003233
X00872Y00296
X00861
X00845Y00285
X00815Y00267
X008035Y002055
X00867Y001935
X0091Y00305
X00911Y003285
X00922
X00933
X00944Y00319
X00829Y00359
T02
X00018Y00075
Y00085
Y00095
X00152
Y00085
Y00075
X00206
Y00085
Y00095
X0034
Y00085
Y00075
X00394
Y00085
Y00095
X00528
Y00085
Y00075
X00582
Y00085
Y00095
X00716
Y00085
Y00075
Y00263
Y00273
Y00283
X008426Y004152
X008416Y004252
X008406Y004351
X007794Y005033
X007784Y005132
X007774Y005232
X00644Y005096
X006451Y004997
X006461Y004897
X005876Y00531
X009739Y004486
X009749Y004387
X009759Y004288
X005866Y00541
X005856Y005509
X004523Y005374
X004533Y005274
X004543Y005175
X004033Y004852
X004043Y004752
X004053Y004653
X00271Y004617
X00272Y004517
X0027Y004716
X002153Y004752
X002143Y004852
X002163Y004653
X00206Y00283
Y00273
Y00263
X0034
Y00273
Y00283
X00394
Y00273
Y00263
X00528
Y00273
Y00283
X00582
Y00273
Y00263
X00152
Y00273
Y00283
X00018
Y00273
Y00263
X00083Y004517
X00082Y004617
X00081Y004716
X00064Y006388
X00063Y006487
X00062Y006587
X00045Y008258
X00044Y008358
X00043Y008457
X001773Y008493
X001763Y008592
X001783Y008394
X00233Y008358
X00234Y008258
X00232Y008457
X003663Y008493
X003653Y008592
X003673Y008393
X004163Y008916
X004153Y009015
X004143Y009115
X005486Y009151
X005476Y00925
X005496Y009051
X005666Y00738
X005676Y00728
X005686Y007181
X004343Y007145
X004353Y007045
X004333Y007244
X003843Y006722
X003853Y006623
X003863Y006523
X00252Y006487
X00253Y006388
X00251Y006587
X001963Y006623
X001953Y006722
X001973Y006523
X006271Y006768
X006261Y006867
X006251Y006967
X007594Y007003
X007584Y007102
X007604Y006903
X008216Y006221
X008226Y006122
X008236Y006022
X009569Y006158
X009559Y006257
X009549Y006357
X009379Y008028
X009369Y008128
X009359Y008227
X008026Y008092
X008036Y007992
X008046Y007893
X007414Y008773
X007404Y008873
X007394Y008972
X006061Y008837
X006071Y008738
X006081Y008638
T03
X00926Y002169
Y002423
Y002677
Y002931
T04
X000723Y001358
X000977
X002603
X002857
X004483
X004737
X006363
X006617
X00748Y001
X00982
X009158Y004838
X008905Y004812
X007192Y005583
X006939Y005557
X006617Y003238
X006363
X004737
X004483
X002857
X002603
X003199Y005177
X003451Y005203
X005022Y005835
X005274Y00586
X001562Y005203
X001309Y005177
X000977Y003238
X000723
X001119Y007047
X001372Y007073
X001182Y008944
X000929Y008918
X002819Y008918
X003071Y008943
X003009Y007047
X003261Y007073
X004832Y007705
X005084Y007731
X004894Y009601
X004642Y009575
X00656Y009298
X006812Y009323
X006749Y007427
X007002Y007453
X008715Y006682
X008968Y006708
X008778Y008578
X008525Y008553
T05
X000596Y000362
X000469Y000596
X001231
X001104Y000362
X002476
X002349Y000596
X003111
X002984Y000362
X004356
X004229Y000596
X004991
X004864Y000362
X006236
X006109Y000596
X006871
X006744Y000362
Y002242
X006871Y002476
X006109
X006236Y002242
X006914Y004554
X006764Y004773
X007419Y004605
X007522Y00485
X008689Y005679
X009195Y00573
X009487Y004105
X009385Y00386
X008879Y003808
X008729Y004028
X005501Y004883
X005604Y005128
X004846Y005051
X004996Y004831
X003781Y00447
X003678Y004225
X003173Y004174
X003023Y004393
X003111Y002476
X002984Y002242
X002476
X002349Y002476
X004229
X004356Y002242
X004864
X004991Y002476
X001231
X001104Y002242
X000596
X000469Y002476
X001283Y004174
X001133Y004393
X001789Y004225
X001891Y00447
X001599Y006095
X001701Y006341
X000943Y006264
X001093Y006044
X000903Y007914
X000753Y008134
X001409Y007966
X001511Y008211
X002643Y008134
X002793Y007914
X003298Y007966
X003401Y008211
X004616Y008572
X004466Y008792
X005121Y008623
X005224Y008869
X005414Y006998
X005311Y006753
X004806Y006702
X004656Y006921
X003591Y006341
X003488Y006095
X002983Y006044
X002833Y006264
X006724Y006424
X006574Y006644
X007229Y006475
X007332Y006721
X007039Y008346
X007142Y008591
X006384Y008514
X006534Y008294
X008349Y007769
X008499Y007549
X009005Y007601
X009107Y007846
X009297Y005975
X008539Y005898
T06
X000342Y00085
X001358
X002222
X003238
X004102
X005118
X005982
X006998
Y00273
X005982
X006612Y005013
X007623Y005116
X008577Y004268
X009588Y004371
X005705Y005393
X004694Y005291
X003882Y004736
X002871Y004633
X001992Y004736
X002222Y00273
X003238
X004102
X005118
X001358
X000342
X000981Y004633
X000791Y006504
X001802Y006606
X001612Y008477
X000601Y008374
X002491Y008374
X003502Y008477
X004314Y009032
X005325Y009134
X005515Y007264
X004504Y007161
X003692Y006606
X002681Y006504
X006422Y006884
X007433Y006986
X008197Y008009
X009208Y008111
X009398Y006241
X008387Y006138
X007243Y008857
X006232Y008754
T07
X00085Y00085
X00273
X00461
X00649
Y00273
X007117Y005064
X009083Y004319
X005199Y005342
X003376Y004685
X00273Y00273
X00461
X00085
X001487Y004685
X001297Y006555
X001107Y008425
X002996Y008425
X003186Y006555
X005009Y007212
X004819Y009083
X006737Y008805
X006927Y006935
X008893Y00619
X008703Y00806
T08
X00179Y00025
X00554
X00975
X009496Y005296
X00534Y00416
X00201Y00379
X002012Y009109
X005747Y009247
X009246Y00716
M30
